<?xml version="1.0" standalone="no"?>
<!DOCTYPE svg PUBLIC "-//W3C//DTD SVG 20010904//EN"
 "http://www.w3.org/TR/2001/REC-SVG-20010904/DTD/svg10.dtd">
<svg version="1.0" xmlns="http://www.w3.org/2000/svg"
 width="1024.000000pt" height="1024.000000pt" viewBox="0 0 1024.000000 1024.000000"
 preserveAspectRatio="xMidYMid meet">

<g transform="translate(0.000000,1024.000000) scale(0.100000,-0.100000)"
fill="#000000" stroke="none">
<path d="M0 5120 l0 -5120 5120 0 5120 0 0 5120 0 5120 -5120 0 -5120 0 0
-5120z m3988 3818 c16 -24 46 -61 67 -83 55 -59 123 -181 136 -243 9 -46 7
-72 -11 -173 -12 -66 -20 -123 -17 -126 16 -15 34 11 55 78 13 41 43 106 68
146 38 62 56 79 122 120 68 43 152 86 152 79 0 -1 -9 -20 -19 -42 -22 -44 -53
-156 -42 -150 4 3 13 -10 20 -29 7 -19 26 -44 43 -56 28 -20 34 -21 67 -9 56
20 121 39 121 35 0 -2 -28 -19 -62 -38 -35 -20 -75 -48 -89 -64 -35 -38 -102
-160 -94 -172 3 -6 0 -18 -6 -29 -11 -17 -17 -16 -131 25 -165 60 -427 106
-548 97 -47 -3 -82 -3 -79 0 3 4 48 10 100 14 l94 7 -4 328 c-4 295 -2 327 12
327 9 0 29 -19 45 -42z m-510 -262 c114 -57 174 -137 226 -302 32 -99 16 -105
-19 -6 -36 101 -78 183 -116 226 -17 20 -67 53 -115 77 -47 23 -87 46 -90 50
-7 12 30 -3 114 -45z m1434 -24 c11 -10 23 -36 28 -56 7 -33 6 -37 -8 -31 -10
4 -32 11 -51 15 -41 10 -61 29 -64 58 -1 22 -17 31 -17 10 0 -6 -3 -8 -6 -5
-4 4 -2 12 4 20 16 19 92 12 114 -11z m-1826 -5 c21 -18 28 -35 32 -75 2 -29
2 -52 -1 -52 -3 0 -18 11 -33 25 -15 14 -32 25 -39 25 -7 0 -27 7 -44 16 -27
13 -32 21 -28 41 3 18 1 23 -10 19 -8 -4 -11 -1 -8 5 4 6 13 8 21 5 7 -3 16
-1 19 4 11 18 64 10 91 -13z m1706 -62 c3 -14 1 -25 -3 -25 -5 0 -9 -11 -9
-24 0 -14 -5 -28 -11 -31 -7 -5 -9 12 -5 52 2 32 5 59 5 61 3 12 19 -12 23
-33z m-1559 -121 c82 -41 112 -66 134 -109 l15 -30 -26 30 c-14 17 -25 33 -26
36 0 3 -28 21 -62 39 -136 73 -162 97 -35 34z m-223 5 c0 -6 -4 -7 -10 -4 -5
3 -10 11 -10 16 0 6 5 7 10 4 6 -3 10 -11 10 -16z m2230 -134 c34 -33 39 -69
15 -116 -17 -33 -26 -31 -64 13 -13 16 -41 38 -63 49 -48 24 -56 43 -32 70 28
31 104 22 144 -16z m-1563 -51 c-3 -3 -12 -4 -19 -1 -8 3 -5 6 6 6 11 1 17 -2
13 -5z m525 -99 c76 -16 184 -51 206 -68 7 -5 12 -32 12 -62 0 -33 5 -57 14
-64 10 -8 140 -11 471 -11 252 1 461 -2 465 -7 12 -13 19 -89 9 -104 -5 -8 -9
-10 -9 -5 0 5 -7 3 -15 -4 -8 -7 -15 -9 -15 -5 0 4 -18 -9 -40 -28 -21 -20
-57 -47 -78 -61 -58 -37 -139 -132 -178 -211 -62 -126 -64 -153 -66 -770 -1
-305 1 -558 4 -561 12 -11 45 15 101 80 l57 65 -10 43 c-5 24 -10 145 -10 271
l0 227 23 0 22 0 -3 -251 c-2 -201 0 -250 10 -247 7 3 32 28 56 58 33 39 42
58 37 74 -4 11 -9 135 -12 274 -5 230 -4 252 11 252 32 0 38 -47 32 -275 -3
-121 -8 -231 -12 -245 -5 -20 8 -11 58 40 l65 65 -8 95 c-4 52 -8 170 -8 263
-1 157 0 167 18 167 14 0 21 -10 26 -37 7 -38 -2 -420 -11 -458 -4 -18 -3 -17
13 4 10 13 40 47 66 77 l49 53 -11 107 c-6 59 -11 183 -11 276 0 158 1 168 19
168 10 0 22 -7 25 -16 7 -19 6 -213 -3 -393 l-6 -133 20 28 c49 68 166 198
194 215 l31 19 0 253 c0 212 2 256 16 275 18 27 49 31 40 5 -11 -28 -26 -219
-29 -366 -1 -75 -1 -137 0 -137 0 0 11 16 22 36 21 35 59 82 165 201 63 72 86
124 86 196 0 70 -18 116 -72 182 -29 35 -33 42 -12 23 43 -40 54 -34 14 7 -50
51 -102 84 -139 89 -45 5 -53 16 -49 72 l3 49 1094 3 c800 1 1097 -1 1107 -9
22 -18 17 -75 -8 -99 -13 -12 -67 -44 -121 -72 -54 -29 -123 -75 -155 -103
-31 -28 -83 -69 -114 -92 -32 -22 -55 -42 -53 -45 6 -5 -70 -71 -148 -130 -28
-21 -120 -104 -206 -186 -86 -82 -190 -179 -232 -215 -41 -36 -136 -132 -210
-214 -152 -168 -588 -621 -853 -885 -146 -145 -176 -181 -171 -197 4 -13 2
-21 -5 -21 -6 0 -8 5 -4 12 4 7 3 8 -4 4 -7 -4 -12 -13 -12 -20 0 -24 82 -126
221 -276 156 -169 527 -588 614 -695 33 -40 87 -106 120 -146 33 -41 85 -103
115 -139 70 -81 239 -309 338 -455 41 -60 89 -126 106 -146 86 -101 146 -179
176 -226 31 -51 48 -69 36 -37 -3 8 -2 13 3 10 5 -3 27 25 49 62 48 79 58 102
44 102 -6 0 -14 -9 -17 -21 -4 -11 -9 -18 -11 -16 -3 2 1 16 7 31 9 19 15 23
25 15 9 -7 16 -4 28 13 9 12 16 28 16 34 0 7 3 14 8 16 14 6 58 73 81 122 33
71 44 154 32 240 -12 84 -34 139 -84 214 -37 54 -207 252 -217 252 -8 0 -136
-142 -189 -209 -118 -150 -144 -324 -60 -395 15 -13 26 -26 23 -29 -7 -7 49
-107 123 -220 36 -54 63 -100 61 -103 -5 -4 -142 177 -206 272 -63 94 -75 133
-70 217 7 114 69 226 215 394 41 47 79 96 85 109 11 25 28 32 28 13 0 -14 45
-74 100 -134 171 -183 232 -323 217 -493 -6 -64 -47 -170 -78 -202 -22 -23
-128 -194 -182 -292 l-21 -38 64 -92 c35 -51 87 -124 115 -163 28 -38 74 -106
101 -150 61 -99 219 -265 339 -355 50 -37 102 -80 118 -94 31 -30 36 -59 10
-54 -10 1 -23 0 -28 -4 -6 -3 -541 -8 -1190 -10 l-1179 -3 -9 35 c-4 19 -11
45 -14 57 -4 18 7 27 87 69 148 76 210 173 212 331 1 69 -24 192 -46 228 -16
26 -28 71 -16 59 18 -18 62 -139 81 -224 l19 -85 -6 69 c-13 147 -78 315 -210
535 -88 148 -251 383 -333 481 -80 96 -251 279 -348 373 -88 85 -281 237 -301
237 -6 0 -7 -14 -1 -37 5 -21 9 -198 9 -393 2 -619 17 -1157 34 -1226 22 -88
62 -167 113 -224 42 -46 161 -130 237 -166 30 -15 36 -23 36 -48 0 -65 -25
-102 -37 -56 -5 19 -6 19 -18 3 -12 -16 -88 -17 -1156 -16 l-1144 1 -3 36 c-4
51 -18 45 -15 -7 l2 -42 -14 50 c-20 77 -20 79 40 108 105 51 232 137 275 184
23 26 54 61 68 76 23 27 24 31 14 80 -13 64 -16 354 -12 1227 2 433 6 623 10
530 12 -238 13 -245 19 -160 3 41 6 -201 6 -537 0 -337 -3 -613 -7 -613 -3 0
-9 6 -11 13 -4 7 -6 8 -6 1 -1 -6 6 -17 14 -24 18 -15 20 -56 4 -66 -11 -6 -7
-204 8 -332 5 -46 7 -51 18 -35 7 10 27 61 46 113 l33 95 3 420 c5 794 5 791
14 690 4 -49 5 -326 3 -615 -3 -499 -3 -523 13 -480 15 40 17 120 21 717 3
556 5 671 17 667 10 -4 14 22 20 122 10 164 1 282 -46 604 -11 74 -18 162 -17
195 1 33 -4 200 -11 370 -7 171 -11 319 -9 330 2 11 10 -95 17 -235 7 -140 14
-259 16 -265 4 -12 -2 631 -6 690 -2 31 -4 24 -10 -30 -4 -40 -6 45 -5 200 0
175 -3 297 -12 345 -6 41 -14 91 -17 110 l-5 35 10 -30 c6 -16 15 -48 20 -70
8 -32 9 -23 5 45 -6 133 -70 301 -152 401 -34 42 -141 139 -217 197 -55 42 -4
22 60 -24 236 -168 339 -341 374 -629 14 -112 22 -3385 9 -3612 -11 -203 -47
-348 -116 -475 -37 -68 -142 -161 -268 -238 -39 -23 -78 -49 -88 -58 -9 -8
-27 -16 -40 -17 -13 -1 -22 -8 -22 -19 0 -15 74 -17 1087 -19 1024 -2 1087 -1
1092 15 3 13 -15 28 -72 60 -43 23 -94 56 -115 74 -49 41 -122 135 -155 199
-56 109 -54 91 -62 1025 -4 476 -11 875 -15 888 -9 27 18 32 31 5 4 -10 11
-378 15 -818 8 -936 11 -971 94 -1110 61 -101 202 -230 275 -250 14 -4 -9 15
-50 42 -93 61 -174 148 -222 239 -75 141 -72 92 -76 1022 -1 457 0 832 4 832
4 0 17 -9 28 -19 12 -11 59 -46 105 -79 46 -33 176 -151 295 -268 176 -175
235 -241 355 -399 210 -277 331 -477 444 -733 51 -113 67 -175 77 -287 l7 -80
2 90 c1 64 -5 112 -19 164 -24 85 -19 110 5 29 22 -72 38 -213 31 -265 -13
-99 -69 -173 -200 -265 -56 -39 -92 -67 -81 -63 11 4 47 9 80 12 80 6 51 -14
-31 -22 -82 -9 -104 -14 -104 -25 0 -7 385 -9 1105 -8 608 2 1105 6 1105 9 0
4 -8 10 -17 14 -31 13 -498 23 -1166 26 -356 1 -664 6 -685 10 -22 5 25 6 113
4 83 -3 491 -5 909 -5 547 0 764 -4 780 -12 19 -10 20 -10 7 6 -8 9 -29 23
-47 32 -47 23 -243 229 -349 367 -107 141 -142 192 -123 182 7 -3 4 1 -6 9
-11 9 -16 16 -11 16 5 0 -1 10 -12 23 -11 12 -62 83 -113 157 -52 74 -100 142
-107 150 -11 13 -72 96 -220 304 -109 152 -132 181 -141 181 -9 0 -70 72 -194
231 -5 7 -11 22 -13 34 -5 26 -83 120 -97 117 -6 -1 -12 7 -14 18 -1 11 -17
32 -34 48 -16 15 -28 27 -24 27 12 0 -131 168 -203 237 -41 40 -72 76 -69 81
3 5 -7 20 -22 33 l-27 24 25 -29 c14 -16 20 -26 13 -22 -6 3 -87 88 -179 189
-92 100 -197 211 -233 247 -114 112 -220 251 -240 312 -18 55 0 81 178 259
156 157 524 534 877 899 104 107 331 338 504 513 286 290 328 328 456 418 78
54 157 105 175 113 33 14 31 15 -41 10 -162 -12 -344 -51 -484 -103 -106 -40
-339 -181 -464 -281 -195 -155 -998 -975 -1318 -1345 -61 -71 -156 -173 -210
-225 l-98 -95 110 115 c60 63 139 151 174 195 94 117 344 388 506 550 77 77
167 169 199 205 32 36 106 117 165 180 59 63 122 133 141 155 19 22 40 44 47
48 7 5 10 12 7 17 -6 9 53 131 69 142 5 3 11 41 13 85 4 73 3 81 -25 124 -37
57 -74 85 -177 137 -125 63 -203 83 -342 91 -66 3 -119 3 -116 -1 2 -5 10 -8
18 -8 21 0 132 -128 160 -185 14 -28 32 -83 40 -121 l15 -69 -4 70 c-5 95 -36
173 -99 242 -38 44 -42 49 -13 23 99 -90 148 -214 128 -323 -20 -104 -66 -181
-182 -297 -58 -58 -150 -159 -205 -225 -55 -66 -146 -167 -202 -225 -128 -132
-374 -400 -475 -516 -43 -49 -115 -126 -160 -171 l-83 -83 1 693 c2 680 2 694
24 782 12 50 29 104 37 120 23 45 139 155 223 210 99 65 100 66 47 50 -71 -21
-102 -41 -178 -112 -81 -77 -109 -120 -139 -218 -21 -68 -21 -90 -26 -790 -3
-396 -7 -730 -10 -742 -2 -13 -10 -23 -17 -23 -11 0 -13 88 -10 473 6 846 9
986 27 1052 39 142 122 248 269 345 l91 60 -52 0 c-107 0 -359 -67 -470 -124
-41 -21 -116 -107 -143 -164 -12 -26 -27 -50 -33 -54 -5 -3 -11 -57 -14 -120
-5 -118 3 -146 12 -43 3 33 5 65 5 70 2 34 200 -32 215 -71 9 -24 7 -152 -3
-158 -4 -3 -11 -34 -13 -69 -3 -34 -13 -77 -22 -94 -9 -18 -16 -48 -16 -68 0
-19 -4 -35 -10 -35 -5 0 -10 -18 -10 -39 0 -22 -5 -41 -11 -43 -7 -2 -13 -59
-17 -161 -4 -137 -7 -157 -21 -155 -13 3 -16 -10 -19 -79 -2 -46 -7 -83 -12
-83 -6 0 -10 -9 -10 -20 0 -11 -4 -20 -10 -20 -5 0 -10 9 -10 19 0 11 -5 21
-11 23 -14 5 -18 79 -25 453 -3 176 -7 321 -10 324 -7 7 -4 -3871 3 -3929 l8
-55 5 40 c4 35 9 40 32 43 48 6 110 -31 171 -100 31 -36 57 -70 57 -75 0 -6 7
-16 15 -23 8 -6 36 -50 62 -97 26 -46 61 -97 78 -113 16 -15 53 -48 80 -74 28
-26 83 -63 123 -83 64 -33 88 -53 64 -53 -10 0 -107 49 -142 72 -14 9 -54 26
-90 38 -70 23 -162 74 -278 153 -83 57 -144 134 -167 210 -8 27 -20 56 -26 63
-6 7 -15 30 -20 51 -4 21 -8 952 -9 2068 -1 2491 -1 2553 13 2498 13 -54 24
-56 19 -3 -4 39 -3 41 21 35 13 -4 45 0 69 9 25 8 74 17 109 21 181 16 155 22
-131 26 -162 3 -297 4 -300 1 -3 -2 -7 -1066 -10 -2365 -5 -2215 -6 -2360 -22
-2337 -15 23 -17 191 -19 2320 -1 2102 0 2298 15 2332 18 42 19 48 9 48 -5 0
-17 -18 -27 -40 -14 -28 -22 -37 -28 -28 -11 18 -10 40 2 33 6 -3 10 -1 10 5
0 6 5 8 10 5 6 -3 10 1 10 9 0 14 -50 16 -462 15 -286 -1 -436 -5 -393 -10 39
-4 119 -23 179 -43 100 -32 111 -34 141 -22 18 8 75 17 127 21 80 6 97 5 111
-9 17 -18 43 -21 49 -7 2 5 19 12 39 16 35 6 37 5 41 -24 2 -16 1 -28 -4 -25
-4 3 -9 -5 -9 -18 -1 -20 -2 -21 -6 -3 -3 11 -8 23 -11 27 -4 4 -8 -1029 -9
-2295 -1 -1901 -4 -2302 -15 -2302 -9 0 -15 24 -20 80 -3 44 -6 670 -7 1390 0
3206 0 3128 -15 3116 -11 -9 -15 -9 -18 0 -2 6 -10 -37 -17 -97 l-14 -109 -21
30 c-92 131 -279 217 -561 259 -112 16 -355 28 -355 17 0 -4 7 -8 15 -8 20 0
93 -22 130 -39 l30 -14 -35 6 c-19 4 -77 9 -130 13 l-95 6 0 55 0 55 35 6 c19
3 346 4 725 2 384 -2 703 0 720 5 l30 9 -34 21 c-44 27 -207 79 -286 92 -73
12 -245 15 -300 5 -38 -6 -38 -5 21 25 34 17 76 32 93 33 17 1 31 8 31 15 0 6
-4 12 -10 12 -5 0 -10 5 -10 12 0 14 169 4 272 -17z m-502 1 c0 -2 -9 -6 -20
-9 -11 -3 -18 -1 -14 4 5 9 34 13 34 5z m706 -303 c10 -20 17 -4390 8 -4581
-5 -104 -8 -121 -19 -105 -19 27 -29 4703 -10 4703 7 0 17 -8 21 -17z m-236
-2355 c0 -2231 -1 -2341 -17 -2325 -17 17 -18 144 -21 2334 -4 2382 -4 2332
31 2333 4 0 7 -1054 7 -2342z m161 2309 c-1 -4 -1 -16 -1 -27 0 -32 -15 -23
-17 11 -1 17 2 29 8 27 6 -2 10 -7 10 -11z m1555 -13 c18 -14 18 -14 -6 -3
-31 14 -36 19 -24 19 6 0 19 -7 30 -16z m-2863 -5 c22 -6 37 -13 34 -15 -3 -3
-27 1 -53 10 -56 17 -39 21 19 5z m1324 -21 c-3 -8 -6 -5 -6 6 -1 11 2 17 5
13 3 -3 4 -12 1 -19z m1028 12 c-3 -5 -12 -10 -18 -10 -7 0 -6 4 3 10 19 12
23 12 15 0z m-898 -67 c-3 -10 -5 -4 -5 12 0 17 2 24 5 18 2 -7 2 -21 0 -30z
m-400 -45 c-3 -8 -6 -5 -6 6 -1 11 2 17 5 13 3 -3 4 -12 1 -19z m1983 -28 c6
-11 8 -20 6 -20 -3 0 -10 9 -16 20 -6 11 -8 20 -6 20 3 0 10 -9 16 -20z
m-2634 -42 l29 -33 -32 29 c-31 28 -38 36 -30 36 2 0 16 -15 33 -32z m119
-163 c36 -76 75 -189 75 -214 -1 -9 -14 23 -29 71 -29 90 -87 204 -124 248
-16 18 -13 17 11 -5 18 -16 48 -61 67 -100z m1012 28 c-3 -10 -5 -2 -5 17 0
19 2 27 5 18 2 -10 2 -26 0 -35z m1144 0 c20 -23 16 -470 -4 -490 -17 -17 -16
-24 -23 265 -4 155 -3 242 4 242 5 0 16 -7 23 -17z m-2062 -332 c1 -48 -5 -35
-12 24 -4 32 -3 43 3 30 5 -11 9 -35 9 -54z m4000 14 c137 -35 294 -127 385
-226 64 -68 147 -229 165 -317 16 -79 13 -189 -8 -294 -23 -114 -37 -145 -96
-228 -54 -75 -55 -75 8 49 54 108 68 182 18 96 -69 -119 -152 -199 -276 -269
-66 -38 -47 -21 42 38 132 86 216 206 262 376 73 265 -69 548 -344 687 -136
68 -180 78 -363 78 -134 0 -148 1 -110 12 63 17 250 16 317 -2z m-370 -19 c-2
-2 -15 -9 -29 -15 -24 -11 -24 -11 -6 3 16 13 49 24 35 12z m327 -30 c134 -24
223 -66 343 -164 66 -54 104 -99 138 -166 80 -157 93 -331 27 -367 -13 -7 -24
-16 -24 -21 0 -4 -20 -8 -45 -8 -43 0 -46 -2 -84 -58 -80 -118 -206 -213 -348
-263 -74 -26 -236 -36 -317 -19 -124 25 -300 144 -363 242 -49 78 -83 182 -83
252 0 160 58 312 154 404 56 54 153 116 219 141 48 18 29 2 -35 -30 -84 -42
-179 -110 -210 -151 -62 -82 -109 -218 -110 -323 -1 -63 3 -78 41 -155 29 -59
58 -100 95 -135 29 -27 56 -60 60 -72 9 -28 74 -87 126 -113 58 -29 183 -60
245 -60 107 0 269 58 370 131 52 38 140 142 170 200 34 66 58 191 50 264 -8
83 -72 210 -144 288 -120 130 -248 180 -458 181 -67 1 -114 4 -105 8 30 12
205 8 288 -6z m-4201 -43 c92 -26 127 -43 88 -43 -12 0 -75 14 -140 31 -112
29 -122 30 -196 19 -145 -21 -298 -83 -394 -158 -63 -50 -137 -161 -171 -255
-22 -60 -26 -88 -26 -172 1 -62 7 -119 17 -150 9 -27 14 -51 12 -53 -2 -2 -11
20 -20 50 -23 72 -31 215 -16 274 17 66 7 65 -20 -3 -35 -89 -33 -231 4 -336
16 -43 27 -83 24 -90 -2 -6 -19 29 -37 78 -28 75 -33 104 -34 175 -1 141 39
247 149 395 75 100 197 177 365 230 160 50 241 52 395 8z m252 0 c-3 -10 -5
-4 -5 12 0 17 2 24 5 18 2 -7 2 -21 0 -30z m-429 -10 c-16 -2 -40 -2 -55 0
-16 2 -3 4 27 4 30 0 43 -2 28 -4z m43 -31 c-7 -2 -18 1 -23 6 -8 8 -4 9 13 5
13 -4 18 -8 10 -11z m-24 -3 c103 -24 209 -59 228 -74 l20 -17 -20 8 c-187 67
-342 68 -480 3 -59 -28 -148 -109 -179 -163 -27 -45 -66 -166 -66 -200 0 -21
3 -22 46 -16 59 9 97 2 90 -17 -3 -8 -2 -12 3 -9 9 6 13 -1 54 -114 40 -110
119 -239 199 -325 15 -16 28 -35 28 -40 0 -13 86 -96 124 -119 32 -20 112
-179 141 -281 9 -33 36 -94 60 -135 29 -50 50 -101 60 -148 21 -102 18 -110
-8 -22 -31 104 -69 176 -167 315 -95 135 -117 158 -317 338 -79 71 -165 153
-192 183 -81 91 -141 236 -141 339 1 181 138 390 294 446 25 9 32 16 23 22 -8
6 -6 7 6 3 21 -7 78 4 72 14 -2 4 8 5 23 3 21 -4 24 -2 12 6 -21 15 24 15 87
0z m4298 -40 c69 -13 151 -47 200 -85 46 -35 128 -158 150 -225 14 -41 16 -70
12 -132 -4 -45 -11 -85 -16 -90 -6 -6 -8 -1 -4 14 4 18 -1 14 -22 -16 -36 -54
-106 -125 -122 -125 -7 0 -13 -5 -13 -12 0 -6 -3 -8 -6 -5 -4 4 18 48 49 99
64 108 81 160 71 226 -26 180 -157 307 -344 331 -91 12 -153 2 -222 -36 -67
-37 -145 -124 -180 -203 -27 -60 -29 -72 -26 -165 3 -83 8 -110 31 -160 15
-33 20 -51 11 -40 -26 32 -52 97 -59 145 -14 107 -17 163 -8 169 5 3 20 32 32
64 25 62 126 180 186 217 60 37 173 49 280 29z m-3888 -46 c-3 -10 -5 -4 -5
12 0 17 2 24 5 18 2 -7 2 -21 0 -30z m3484 -78 c-41 -43 -71 -84 -71 -96 0
-11 -4 -18 -9 -15 -18 11 -34 -53 -39 -154 -5 -121 3 -148 84 -265 25 -37 43
-69 41 -72 -10 -9 -101 114 -131 177 -26 55 -31 76 -31 140 1 87 26 152 95
245 34 46 110 115 128 115 2 0 -28 -34 -67 -75z m424 60 c78 -21 106 -40 153
-102 58 -77 78 -127 64 -158 -6 -14 -18 -25 -25 -25 -8 0 -52 18 -98 39 -46
22 -108 47 -137 56 -83 27 -176 88 -180 117 -9 72 96 106 223 73z m-4407 -167
c-29 -29 -67 -78 -83 -108 -27 -49 -30 -64 -30 -140 0 -131 51 -228 190 -362
41 -39 93 -94 115 -123 45 -59 129 -196 164 -270 42 -86 39 -103 -4 -26 -79
142 -151 224 -382 436 -116 107 -170 216 -172 345 -1 90 21 145 85 215 38 41
85 75 105 75 3 0 -10 -18 -29 -40 -37 -40 -77 -109 -77 -132 0 -7 11 7 25 31
32 56 70 100 109 128 17 12 32 22 34 23 2 0 -21 -24 -50 -52z m3632 -25 c-49
-80 -70 -152 -70 -247 0 -104 23 -182 79 -268 32 -50 35 -56 11 -28 -17 19
-45 64 -63 100 -29 59 -32 74 -36 181 -3 127 9 174 71 267 39 57 44 53 8 -5z
m-3414 -62 c30 -18 83 -81 69 -81 -4 0 0 -11 9 -25 20 -30 20 -49 1 -65 -12
-10 -15 -9 -15 7 0 16 -5 19 -30 15 -33 -5 -95 28 -147 78 -35 33 -37 38 -25
56 24 36 91 44 138 15z m-226 -143 c0 -15 4 -38 10 -53 6 -16 6 -24 0 -20 -12
7 -30 71 -30 105 0 20 2 22 10 10 5 -8 10 -27 10 -42z m3558 -282 c6 -21 7
-35 2 -30 -17 19 -30 120 -28 227 l1 112 8 -135 c4 -74 12 -152 17 -174z
m-3432 208 c19 -3 31 -10 28 -16 -7 -11 -63 -1 -82 15 -7 6 -18 19 -24 30 -10
20 -9 20 17 -1 15 -12 42 -24 61 -28z m391 -41 c-3 -10 -5 -2 -5 17 0 19 2 27
5 18 2 -10 2 -26 0 -35z m-436 20 c13 -15 12 -15 -8 -4 -24 12 -29 21 -14 21
5 0 15 -7 22 -17z m-31 -18 c13 -14 21 -25 18 -25 -2 0 -15 11 -28 25 -13 14
-21 25 -18 25 2 0 15 -11 28 -25z m467 -272 c-1 -43 -3 -10 -3 72 0 83 2 118
3 78 2 -40 2 -107 0 -150z m3517 158 c-3 -3 -15 6 -27 18 l-22 24 27 -19 c14
-10 24 -21 22 -23z m-4556 -76 c-3 -3 -9 2 -12 12 -6 14 -5 15 5 6 7 -7 10
-15 7 -18z m4385 -233 c96 -66 186 -100 323 -122 l59 -9 -73 5 c-174 13 -326
93 -443 237 -40 48 -38 47 24 -15 37 -37 87 -81 110 -96z m-903 35 c0 -2 -15
-16 -32 -33 l-33 -29 29 33 c28 30 36 37 36 29z m943 -152 c73 -36 160 -71
202 -81 98 -23 89 -30 -11 -10 -138 29 -359 151 -395 218 -7 14 6 6 32 -20 29
-28 89 -66 172 -107z m1107 105 c0 -5 -2 -10 -4 -10 -3 0 -8 5 -11 10 -3 6 -1
10 4 10 6 0 11 -4 11 -10z m-3550 -40 c0 -5 9 -10 20 -10 13 0 20 -7 20 -20 0
-11 5 -20 10 -20 6 0 10 -13 10 -30 0 -16 -4 -30 -10 -30 -5 0 -10 -18 -10
-40 0 -22 -4 -40 -10 -40 -5 0 -10 -9 -10 -20 0 -15 -7 -20 -29 -20 l-30 0 -3
88 c-4 123 0 152 23 152 10 0 19 -4 19 -10z m-947 -550 c-4 -96 -9 -159 -11
-140 -2 19 0 172 5 340 7 277 8 290 11 140 2 -91 0 -244 -5 -340z m2247 427
c0 -2 -15 -16 -32 -33 l-33 -29 29 33 c28 30 36 37 36 29z m754 -122 c4 -21
25 -55 51 -85 50 -57 63 -90 46 -126 -16 -35 -103 -126 -112 -117 -26 27 -38
248 -18 328 13 51 24 51 33 0z m-3493 18 c13 -16 12 -17 -3 -4 -10 7 -18 15
-18 17 0 8 8 3 21 -13z m-186 -28 c135 -35 167 -54 276 -164 90 -91 102 -107
164 -232 49 -99 64 -124 59 -94 -8 49 -65 192 -98 249 -29 49 -100 140 -160
205 l-41 44 36 -26 c35 -26 75 -72 133 -152 47 -64 124 -236 151 -337 28 -104
33 -153 11 -103 -14 30 -14 30 -10 -15 4 -42 3 -41 -14 20 -21 73 -79 196
-136 285 -44 69 -224 248 -276 275 -91 46 -257 64 -328 34 -20 -8 -32 -10 -27
-5 17 17 88 40 126 40 20 1 80 -10 134 -24z m-36 -53 c36 -26 42 -99 11 -127
-22 -20 -22 -20 -38 0 -10 11 -45 38 -79 60 -58 37 -80 61 -69 72 2 3 21 11
42 18 43 14 95 6 133 -23z m2478 22 c13 -4 21 -10 18 -14 -2 -4 25 -33 60 -64
36 -32 65 -62 65 -67 0 -11 81 -93 150 -153 146 -125 450 -418 450 -433 0 -7
4 -13 8 -13 4 0 46 -44 92 -97 47 -54 148 -168 225 -253 77 -85 156 -182 175
-214 19 -32 69 -100 110 -151 81 -101 143 -184 149 -200 2 -5 20 -31 40 -56
20 -26 74 -100 121 -164 47 -65 100 -138 117 -161 18 -24 51 -81 74 -126 23
-46 63 -114 89 -153 26 -38 54 -84 63 -102 9 -17 22 -37 30 -45 7 -7 56 -65
109 -129 105 -126 146 -163 223 -200 51 -25 128 -76 174 -116 l26 -23 -35 6
c-60 11 -215 63 -293 98 -114 52 -248 130 -402 234 -200 134 -224 160 -345
367 -98 167 -242 399 -328 530 -77 117 -141 205 -366 504 -91 121 -309 375
-444 519 -103 109 -215 212 -197 182 5 -10 1 -9 -11 3 -10 9 -37 31 -59 48
-22 16 -47 35 -55 42 -28 22 -95 62 -160 97 -108 56 -200 119 -212 144 -7 16
-16 22 -27 19 -9 -3 -1 10 17 29 34 36 68 49 282 107 45 12 41 12 67 5z m-627
-150 c0 -55 -15 -150 -26 -163 -2 -2 -10 4 -19 13 -33 32 -48 136 -20 136 8 0
17 11 21 25 3 14 10 22 15 19 5 -3 9 4 9 15 0 12 5 21 10 21 6 0 10 -29 10
-66z m-2058 -69 c2 2 24 -2 48 -9 50 -15 39 -28 -20 -23 -27 2 -38 9 -53 37
-19 35 -19 35 1 13 11 -12 21 -20 24 -18z m3834 -64 c92 -92 150 -162 172
-208 15 -32 15 -35 -14 -95 -16 -34 -35 -67 -42 -75 -7 -7 -22 -36 -32 -65
l-19 -53 0 126 c-1 69 -4 167 -7 216 l-7 91 -76 6 c-134 11 -197 20 -176 24
25 5 73 49 91 85 8 15 18 27 23 27 4 0 43 -35 87 -79z m330 12 c90 -63 94 -68
70 -74 -22 -6 -283 6 -307 14 -7 2 129 127 138 127 2 0 47 -30 99 -67z m597
45 c57 -17 139 -96 167 -160 34 -78 33 -169 -2 -228 -14 -25 -43 -61 -64 -80
-39 -37 -38 -31 8 38 66 96 73 192 24 290 -44 87 -136 142 -238 142 -100 0
-223 -100 -254 -205 -18 -64 -15 -118 12 -184 18 -47 72 -89 144 -114 25 -9
36 -16 25 -16 -28 -1 -94 31 -132 63 -76 65 -98 185 -50 289 31 69 102 140
160 160 52 19 146 21 200 5z m15 -77 c82 -42 126 -128 88 -170 -22 -24 -28
-23 -112 21 -38 19 -80 39 -94 43 -33 10 -70 44 -70 65 0 53 115 78 188 41z
m-2735 -88 c-33 -32 -67 -69 -76 -83 -17 -25 -17 -25 -3 6 9 17 12 34 9 38 -4
3 0 6 7 6 7 0 35 20 61 45 70 65 71 55 2 -12z m1617 -13 c41 -41 76 -68 83
-65 7 4 1 -3 -12 -14 -13 -12 -29 -21 -36 -21 -8 0 -51 35 -98 78 -73 68 -81
78 -63 84 44 13 58 6 126 -62z m-1638 38 c-7 -7 -12 -8 -12 -2 0 14 12 26 19
19 2 -3 -1 -11 -7 -17z m-1457 -1073 c3 -506 6 -986 8 -1067 l3 -146 -29 14
-28 15 6 1072 c3 590 7 1081 10 1092 2 11 4 25 6 30 1 6 6 -12 11 -40 5 -27
11 -464 13 -970z m3879 938 c-9 -52 -14 -54 -14 -5 0 23 5 42 10 42 7 0 8 -14
4 -37z m-4024 -23 c13 -8 15 -135 15 -1024 l0 -1014 -28 16 -28 17 3 1007 c2
664 6 1008 13 1008 6 0 17 -5 25 -10z m3385 -14 c22 -24 42 -96 32 -113 -8
-12 21 -75 32 -69 9 6 35 -83 27 -92 -3 -2 -10 8 -16 24 -6 16 -38 70 -71 121
-60 93 -69 119 -47 141 16 16 17 16 43 -12z m-3288 -118 c-2 -13 -4 -5 -4 17
-1 22 1 32 4 23 2 -10 2 -28 0 -40z m410 -960 c-1 -183 -2 -36 -2 327 0 363 1
513 2 333 2 -179 2 -476 0 -660z m3918 932 c-3 -5 -28 -22 -55 -35 -37 -19
-63 -25 -107 -24 l-58 2 68 7 c52 5 77 13 110 37 42 30 55 34 42 13z m-613
-48 c-3 -48 2 -72 33 -152 31 -77 38 -112 42 -185 l5 -90 -46 90 c-63 123 -80
183 -71 258 5 49 31 137 39 137 1 0 0 -26 -2 -58z m-3940 -11 c4 -3 9 -265 11
-581 3 -316 7 -593 11 -615 5 -35 5 -37 -5 -15 -53 114 -64 132 -86 143 -24
11 -24 11 -4 19 l22 8 -3 529 -3 530 25 -6 c14 -3 28 -8 32 -12z m4275 -27
c-3 -3 -12 -4 -19 -1 -8 3 -5 6 6 6 11 1 17 -2 13 -5z m-4456 -83 c44 -43 52
-90 22 -123 -25 -28 -40 -22 -104 39 -63 59 -69 75 -42 105 29 32 80 24 124
-21z m2240 2 c13 -16 12 -17 -3 -4 -17 13 -22 21 -14 21 2 0 10 -8 17 -17z
m107 -82 c29 -24 50 -46 48 -49 -3 -2 -24 14 -48 36 -24 22 -52 48 -63 59 -36
32 8 0 63 -46z m1263 -11 c39 -50 52 -70 46 -70 -5 0 -78 96 -92 120 -11 20 3
5 46 -50z m-2894 -250 l0 -85 -8 90 c-4 50 -7 117 -6 150 l0 60 7 -65 c4 -36
7 -103 7 -150z m1611 106 c7 -12 -95 59 -118 82 -8 8 13 -4 48 -28 35 -24 66
-48 70 -54z m1697 37 c14 -21 25 -43 25 -50 0 -7 6 -13 13 -13 7 0 40 -28 73
-62 68 -70 43 -63 -39 12 -30 27 -60 50 -66 50 -12 0 -61 69 -61 87 0 26 30
12 55 -24z m604 -35 c23 -26 27 -36 18 -47 -10 -12 -9 -12 9 -3 30 16 48 -5
29 -31 -7 -10 -17 -18 -21 -17 -5 1 -10 -4 -12 -12 -3 -10 -2 -10 6 1 12 16
24 0 13 -17 -4 -7 -15 -10 -24 -6 -9 3 -14 11 -10 17 3 6 1 7 -5 3 -16 -9 -15
7 0 22 9 9 9 12 -1 12 -7 0 -11 6 -8 13 3 7 -3 24 -13 37 -10 13 -16 31 -13
39 3 11 1 10 -7 -2 -10 -15 -8 -23 10 -42 14 -15 18 -25 11 -30 -6 -3 -11 -11
-11 -16 0 -6 4 -7 10 -4 6 3 7 -1 4 -10 -4 -9 -7 -15 -8 -13 -25 37 -44 79
-32 69 19 -16 21 -8 4 18 -9 15 -9 23 1 35 18 21 17 21 50 -16z m-884 -18 c10
-11 16 -20 13 -20 -3 0 -13 9 -23 20 -10 11 -16 20 -13 20 3 0 13 -9 23 -20z
m-1374 -17 c13 -16 12 -17 -3 -4 -10 7 -18 15 -18 17 0 8 8 3 21 -13z m2200
-60 c13 -16 12 -17 -3 -4 -10 7 -18 15 -18 17 0 8 8 3 21 -13z m155 5 c4 -7 4
-10 -1 -6 -4 4 -14 3 -22 -3 -8 -8 -13 -8 -13 -1 0 6 6 13 13 15 6 3 13 6 14
6 1 1 5 -5 9 -11z m-186 -44 c0 -2 -9 0 -20 6 -11 6 -20 13 -20 16 0 2 9 0 20
-6 11 -6 20 -13 20 -16z m180 -6 c0 -21 -3 -29 -10 -22 -5 5 -7 19 -4 32 9 31
14 27 14 -10z m69 -24 c6 -7 7 -15 4 -18 -4 -3 0 -6 8 -6 8 0 24 -20 36 -44
20 -39 20 -45 6 -50 -9 -4 -18 -4 -21 -1 -3 3 0 5 7 5 7 0 9 5 6 10 -4 6 -10
8 -15 5 -4 -3 -6 3 -3 13 2 10 -5 28 -16 40 l-20 23 -11 -21 c-6 -11 -8 -25
-5 -30 4 -6 -1 -7 -12 -3 -16 6 -16 5 -5 -10 8 -8 19 -14 26 -11 7 3 18 -6 24
-20 9 -20 8 -24 -2 -20 -14 5 -40 -42 -27 -51 5 -2 11 4 14 15 3 11 11 20 19
19 10 0 10 -2 0 -6 -6 -2 -10 -9 -7 -13 3 -5 -3 -18 -15 -30 l-20 -20 0 21 c0
14 -5 19 -14 16 -16 -6 -30 30 -15 39 5 3 9 -2 9 -10 0 -9 5 -16 10 -16 6 0
10 4 10 8 0 13 -51 54 -58 47 -4 -3 -1 -10 6 -14 13 -8 6 -41 -8 -41 -5 0 -16
-7 -25 -17 -14 -14 -18 -14 -26 -2 -5 8 -9 10 -9 5 0 -5 -7 -3 -15 4 -8 7 -14
20 -14 29 1 13 2 13 6 -1 2 -10 9 -18 15 -18 5 0 7 7 4 15 -3 8 -9 23 -12 33
-5 16 -5 16 9 0 8 -10 22 -18 33 -18 17 0 17 -1 -2 -14 -10 -8 -16 -17 -12
-21 4 -4 19 2 33 13 25 20 25 21 7 31 -11 6 -22 8 -24 5 -3 -2 -11 3 -18 12
-11 12 -11 17 -2 23 9 5 6 13 -9 27 -22 19 -22 19 -10 -3 6 -13 7 -24 2 -27
-9 -6 -27 49 -23 67 1 4 -3 7 -10 7 -6 0 -3 7 8 15 19 14 19 14 -1 15 -11 1
-14 4 -7 7 21 8 13 21 -10 17 -21 -4 -21 -4 -3 4 22 10 45 5 45 -10 0 -5 5 -6
11 -2 8 5 8 1 0 -14 -6 -11 -15 -22 -20 -24 -5 -1 -3 -9 4 -15 11 -10 17 -9
30 4 13 13 14 18 3 24 -9 6 -5 9 13 9 14 0 30 -5 35 -10 16 -16 61 23 49 42
-9 12 8 -6 34 -38z m-91 34 c-2 -6 -10 -14 -16 -16 -7 -2 -10 2 -6 12 7 18 28
22 22 4z m-138 -28 c0 -5 -7 -7 -15 -4 -8 4 -15 8 -15 10 0 2 7 4 15 4 8 0 15
-4 15 -10z m-30 -20 c0 -5 -5 -10 -11 -10 -5 0 -7 5 -4 10 3 6 8 10 11 10 2 0
4 -4 4 -10z m120 0 c0 -5 -5 -10 -11 -10 -5 0 -7 5 -4 10 3 6 8 10 11 10 2 0
4 -4 4 -10z m-79 -27 c-11 -4 -11 -7 0 -14 7 -4 10 -11 6 -16 -9 -9 -28 17
-21 29 3 4 11 8 17 7 8 0 7 -3 -2 -6z m227 -38 c-3 -3 -9 2 -12 12 -6 14 -5
15 5 6 7 -7 10 -15 7 -18z m-293 -53 c-3 -3 -11 0 -18 7 -9 10 -8 11 6 5 10
-3 15 -9 12 -12z m95 8 c0 -5 -4 -10 -10 -10 -5 0 -10 5 -10 10 0 6 5 10 10
10 6 0 10 -4 10 -10z m245 -19 c3 -5 1 -12 -5 -16 -5 -3 -10 1 -10 9 0 18 6
21 15 7z m-271 -17 c3 -8 2 -12 -4 -9 -6 3 -10 10 -10 16 0 14 7 11 14 -7z
m306 -3 c0 -5 -7 -12 -16 -15 -14 -5 -15 -4 -4 9 14 17 20 19 20 6z m-16 -32
c10 8 16 9 21 1 3 -5 -1 -10 -10 -10 -11 0 -15 -5 -12 -14 4 -10 1 -13 -9 -9
-12 4 -14 0 -8 -23 4 -16 8 -31 10 -33 5 -6 24 10 24 20 0 6 -5 7 -12 3 -7 -4
-8 -3 -4 4 11 19 26 14 26 -8 0 -11 -4 -20 -10 -20 -5 0 -10 -5 -10 -11 0 -6
7 -9 15 -5 16 6 21 -9 6 -19 -14 -8 -60 45 -54 61 3 8 0 14 -6 14 -6 0 -11 -5
-11 -11 0 -5 -5 -7 -11 -3 -8 5 -8 8 0 14 7 3 9 15 5 26 -5 15 -4 16 5 4 5 -8
13 -11 17 -7 4 4 2 13 -4 19 -7 7 -12 17 -12 23 0 5 7 1 15 -9 11 -15 17 -17
29 -7z m-2179 -9 c10 -11 16 -20 13 -20 -3 0 -13 9 -23 20 -10 11 -16 20 -13
20 3 0 13 -9 23 -20z m2030 10 c-3 -5 -11 -10 -16 -10 -6 0 -7 5 -4 10 3 6 11
10 16 10 6 0 7 -4 4 -10z m-115 -10 c0 -5 -7 -7 -15 -4 -8 4 -15 8 -15 10 0 2
7 4 15 4 8 0 15 -4 15 -10z m85 -13 c17 0 36 2 42 6 6 4 14 3 18 -3 6 -10 -12
-14 -46 -12 -20 1 -43 -65 -25 -71 6 -2 8 -8 3 -12 -4 -5 -13 0 -21 10 -11 16
-11 21 1 33 15 16 13 37 -5 37 -6 0 -17 6 -24 14 -11 12 -10 13 7 6 11 -4 34
-7 50 -8z m90 -27 c3 -5 1 -10 -4 -10 -6 0 -11 5 -11 10 0 6 2 10 4 10 3 0 8
-4 11 -10z m-2044 -17 c13 -16 12 -17 -3 -4 -10 7 -18 15 -18 17 0 8 8 3 21
-13z m1913 6 c-6 -11 -44 -12 -44 -1 0 4 11 8 25 8 14 1 22 -2 19 -7z m96 1
c0 -5 -7 -7 -15 -4 -9 4 -15 0 -15 -10 0 -9 -4 -16 -9 -16 -7 0 -8 17 -2 38 3
7 41 0 41 -8z m55 -20 c3 -5 1 -10 -4 -10 -6 0 -11 5 -11 10 0 6 2 10 4 10 3
0 8 -4 11 -10z m-45 -46 c0 -7 5 -16 11 -20 9 -5 10 1 5 20 -4 15 -2 26 4 26
5 0 10 -9 10 -20 0 -11 5 -20 10 -20 6 0 10 8 10 17 0 9 3 14 6 10 13 -13 -7
-43 -28 -43 -27 0 -46 16 -40 34 2 6 -1 12 -7 12 -16 0 -13 -39 4 -56 8 -9 15
-21 15 -27 0 -19 -28 15 -45 55 -13 33 -13 37 0 32 10 -4 15 0 15 12 1 18 1
18 15 0 8 -11 15 -25 15 -32z m-1918 -64 c52 -59 117 -150 157 -222 50 -88 30
-69 -35 35 -33 50 -88 128 -123 172 -102 127 -102 132 1 15z m1531 58 c-2 -3
3 -9 9 -11 9 -4 10 -6 1 -6 -12 -1 -43 36 -43 51 0 5 8 0 18 -9 11 -10 17 -21
15 -25z m485 7 c6 -14 10 -25 8 -25 -2 0 -11 11 -20 25 -9 14 -13 25 -8 25 5
0 14 -11 20 -25z m-388 5 c0 -5 -2 -10 -4 -10 -3 0 -8 5 -11 10 -3 6 -1 10 4
10 6 0 11 -4 11 -10z m217 -38 c-17 -16 -47 -10 -47 10 0 9 3 9 12 0 14 -14
28 -16 28 -3 0 5 -9 13 -20 16 -11 3 -20 10 -20 15 0 5 14 2 31 -7 28 -14 29
-17 16 -31z m-97 34 c0 -3 -4 -8 -10 -11 -5 -3 -10 -1 -10 4 0 6 5 11 10 11 6
0 10 -2 10 -4z m35 -6 c3 -5 1 -10 -4 -10 -6 0 -11 5 -11 10 0 6 2 10 4 10 3
0 8 -4 11 -10z m212 -32 c-3 -8 -6 -5 -6 6 -1 11 2 17 5 13 3 -3 4 -12 1 -19z
m-247 2 c0 -5 -2 -10 -4 -10 -3 0 -8 5 -11 10 -3 6 -1 10 4 10 6 0 11 -4 11
-10z m310 -25 c0 -5 -5 -3 -11 5 -8 11 -12 12 -16 2 -2 -6 -9 -9 -14 -6 -6 3
-2 12 8 19 18 13 33 4 33 -20z m304 -71 c53 -54 94 -99 91 -102 -3 -3 -11 0
-17 6 -15 15 -28 15 -28 1 0 -15 -39 -69 -51 -69 -5 0 -28 20 -51 45 -31 32
-58 50 -95 62 -31 10 -53 23 -53 31 0 9 -7 11 -20 7 -11 -3 -20 -2 -20 2 0 16
58 66 68 59 5 -3 15 1 22 9 7 8 9 15 5 15 -4 0 -2 7 5 15 23 28 47 15 144 -81z
m-490 80 c9 -3 16 -16 16 -28 -1 -21 -1 -21 -13 2 -7 12 -16 19 -20 16 -4 -4
-7 -2 -7 4 0 14 2 14 24 6z m76 -4 c0 -5 -2 -10 -4 -10 -3 0 -8 5 -11 10 -3 6
-1 10 4 10 6 0 11 -4 11 -10z m-91 -39 c-6 -2 -15 3 -20 10 -15 24 -10 29 11
11 12 -10 16 -18 9 -21z m-1689 -2 c15 -28 5 -23 -15 7 -9 15 -12 23 -6 20 6
-4 16 -16 21 -27z m1637 9 c-3 -8 -6 -5 -6 6 -1 11 2 17 5 13 3 -3 4 -12 1
-19z m199 -16 c-6 -5 -36 23 -36 34 0 4 9 -1 20 -11 11 -10 18 -20 16 -23z
m-221 18 c3 -5 1 -10 -4 -10 -6 0 -11 5 -11 10 0 6 2 10 4 10 3 0 8 -4 11 -10z
m185 -15 c13 -14 21 -25 18 -25 -2 0 -15 11 -28 25 -13 14 -21 25 -18 25 2 0
15 -11 28 -25z m76 -1 c-4 -9 -9 -15 -11 -12 -3 3 -3 13 1 22 4 9 9 15 11 12
3 -3 3 -13 -1 -22z m-126 6 c0 -5 -2 -10 -4 -10 -3 0 -8 5 -11 10 -3 6 -1 10
4 10 6 0 11 -4 11 -10z m-115 -19 c3 -5 1 -12 -5 -16 -5 -3 -10 1 -10 9 0 18
6 21 15 7z m65 -5 c0 -3 -4 -8 -10 -11 -5 -3 -10 -1 -10 4 0 6 5 11 10 11 6 0
10 -2 10 -4z m40 -6 c0 -5 -2 -10 -4 -10 -3 0 -8 5 -11 10 -3 6 -1 10 4 10 6
0 11 -4 11 -10z m-1705 -26 c9 -15 12 -23 6 -20 -11 7 -35 46 -28 46 3 0 12
-12 22 -26z m1640 6 c3 -5 1 -10 -4 -10 -6 0 -11 5 -11 10 0 6 2 10 4 10 3 0
8 -4 11 -10z m-95 -10 c0 -5 -2 -10 -4 -10 -3 0 -8 5 -11 10 -3 6 -1 10 4 10
6 0 11 -4 11 -10z m184 1 c4 -5 -3 -7 -14 -4 -23 6 -26 13 -6 13 8 0 17 -4 20
-9z m2 -68 c-6 -6 -36 9 -36 18 0 5 9 4 20 -3 10 -7 18 -14 16 -15z m-91 -3
c3 -5 1 -10 -4 -10 -6 0 -11 5 -11 10 0 6 2 10 4 10 3 0 8 -4 11 -10z m76 -17
c13 -17 13 -17 -6 -3 -11 8 -22 16 -24 17 -2 2 0 3 6 3 6 0 17 -8 24 -17z
m-4620 -29 c10 -9 24 -35 31 -56 13 -45 4 -58 -44 -58 -55 0 -94 31 -118 95
-8 22 -6 27 13 35 31 14 95 5 118 -16z m4399 6 c0 -5 -5 -10 -11 -10 -5 0 -7
5 -4 10 3 6 8 10 11 10 2 0 4 -4 4 -10z m194 -6 c3 -8 2 -12 -4 -9 -6 3 -10
10 -10 16 0 14 7 11 14 -7z m36 -34 c0 -5 -2 -10 -4 -10 -3 0 -8 5 -11 10 -3
6 -1 10 4 10 6 0 11 -4 11 -10z m-130 -135 c6 3 7 -1 4 -9 -8 -21 -8 -21 -39
22 -27 37 -27 37 -1 9 14 -16 30 -25 36 -22z m-2010 10 c-91 -27 -97 -27 -60
-6 19 11 51 20 70 20 l35 0 -45 -14z m123 8 c-7 -2 -19 -2 -25 0 -7 3 -2 5 12
5 14 0 19 -2 13 -5z m1932 -23 c-9 -16 -18 -30 -21 -30 -2 0 2 14 11 30 9 17
18 30 21 30 2 0 -2 -13 -11 -30z m-4622 -55 c4 -20 -59 -16 -86 5 -48 38 -34
51 29 27 31 -12 57 -26 57 -32z m127 40 c0 -8 -2 -15 -4 -15 -2 0 -6 7 -10 15
-3 8 -1 15 4 15 6 0 10 -7 10 -15z m2955 -66 c25 -45 44 -84 41 -86 -4 -4 -40
56 -75 125 -36 72 -15 46 34 -39z m-412 57 c39 -16 72 -52 80 -86 19 -80 -40
-95 -120 -32 -58 47 -72 63 -78 91 -7 39 56 54 118 27z m-2533 -204 l-1 -147
-29 33 c-33 36 -37 67 -20 180 9 64 25 97 41 86 5 -3 9 -71 9 -152z m3078 113
c-3 -3 -9 2 -12 12 -6 14 -5 15 5 6 7 -7 10 -15 7 -18z m-2681 -87 c-3 -7 -5
-2 -5 12 0 14 2 19 5 13 2 -7 2 -19 0 -25z m4646 18 c48 -17 74 -41 97 -86 44
-88 30 -160 -30 -160 -24 0 -36 9 -60 43 -44 62 -61 77 -89 77 -32 0 -91 35
-91 53 0 7 15 27 33 44 45 44 78 51 140 29z m-1889 -96 c3 -14 -5 -2 -18 25
-14 28 -25 55 -25 60 0 15 36 -56 43 -85z m1640 -28 c-14 -41 -13 -44 10 -75
14 -18 31 -45 40 -61 14 -27 20 -29 69 -30 31 -1 61 -7 71 -15 15 -13 16 -16
1 -30 -32 -33 -135 -4 -207 57 -26 22 -24 104 3 159 26 54 33 51 13 -5z
m-4377 -199 c-3 -10 -5 -2 -5 17 0 19 2 27 5 18 2 -10 2 -26 0 -35z m1955 -26
c26 -15 74 -32 105 -37 l58 -9 -67 3 c-75 4 -132 31 -183 87 l-30 33 35 -25
c19 -14 56 -37 82 -52z m-872 -411 c8 -2 -273 -3 -625 -3 -352 0 -599 3 -550
6 91 6 1147 3 1175 -3z m580 -7 c10 -7 0 -9 -34 -5 -27 3 -155 7 -285 8 l-236
2 165 7 c192 7 368 2 390 -12z m-1890 -9 c-14 -4 -34 -8 -45 -9 -16 -1 -17 1
-5 9 8 5 29 9 45 9 29 -1 29 -1 5 -9z m1970 -26 c0 -2 -11 -4 -25 -4 -14 0
-25 4 -25 9 0 4 11 6 25 3 14 -2 25 -6 25 -8z m122 -112 c-12 -8 -72 -4 -72 4
0 2 19 4 43 4 25 0 37 -4 29 -8z"/>
<path d="M4480 8195 c-8 -9 -8 -15 -2 -15 12 0 26 19 19 26 -2 2 -10 -2 -17
-11z"/>
<path d="M3435 7930 l-400 -5 335 -5 c425 -6 750 -2 750 11 0 5 -58 8 -142 7
-79 -2 -323 -5 -543 -8z"/>
<path d="M4335 7930 c83 -4 206 -7 275 -7 l125 1 -155 6 c-85 4 -209 7 -275 7
l-120 -1 150 -6z"/>
<path d="M4868 7933 c12 -2 30 -2 40 0 9 3 -1 5 -23 4 -22 0 -30 -2 -17 -4z"/>
<path d="M5140 7930 l-65 -7 65 -1 c36 0 74 3 85 8 l20 9 -20 -1 c-11 -1 -49
-4 -85 -8z"/>
<path d="M6003 7923 c26 -2 68 -2 95 0 26 2 4 3 -48 3 -52 0 -74 -1 -47 -3z"/>
<path d="M6548 7923 c149 -2 395 -2 545 0 149 1 27 2 -273 2 -300 0 -422 -1
-272 -2z"/>
<path d="M7788 7923 c17 -2 47 -2 65 0 17 2 3 4 -33 4 -36 0 -50 -2 -32 -4z"/>
<path d="M7048 7883 c23 -2 61 -2 85 0 23 2 4 4 -43 4 -47 0 -66 -2 -42 -4z"/>
<path d="M7789 7827 c-220 -127 -260 -158 -434 -336 -93 -96 -312 -319 -486
-495 -883 -898 -1067 -1087 -1136 -1169 l-75 -89 22 -42 c13 -23 36 -57 53
-76 27 -32 29 -24 2 10 -6 8 -23 35 -37 60 l-25 45 49 50 50 50 -33 -47 c-18
-26 -30 -50 -27 -54 4 -3 12 5 19 18 6 12 28 43 47 68 20 25 26 36 14 26 -12
-11 -22 -14 -22 -8 0 5 30 36 66 68 36 32 97 94 136 138 38 45 164 171 278
281 115 110 223 218 240 240 17 22 183 193 368 381 185 187 410 415 499 507
152 157 171 173 337 282 97 63 176 118 176 120 0 12 -30 2 -81 -28z"/>
<path d="M5953 7219 c-15 -22 -45 -61 -65 -85 -21 -25 -43 -55 -50 -67 -7 -14
-13 -17 -16 -9 -2 7 -16 -6 -31 -30 -16 -24 -38 -52 -51 -63 -21 -17 -20 -15
4 18 50 66 21 40 -65 -60 -46 -54 -119 -134 -161 -180 -80 -84 -85 -92 -68
-109 6 -6 -34 -54 -119 -138 -71 -71 -132 -128 -137 -128 -11 2 -115 -100
-157 -153 -17 -22 -24 -34 -14 -26 36 28 15 -6 -28 -47 -25 -23 -45 -48 -45
-55 0 -6 31 21 68 62 37 40 153 160 257 265 176 176 368 396 347 396 -5 0 -37
-31 -71 -70 -35 -38 -59 -70 -56 -70 4 0 2 -7 -5 -15 -16 -19 -29 -19 -26 0 3
20 157 176 167 169 9 -5 173 191 178 213 2 10 6 12 10 5 7 -11 83 80 138 165
40 62 37 71 -4 12z m-242 -286 c-5 -10 -29 -36 -52 -58 -42 -39 -42 -39 7 17
53 61 60 68 45 41z m-641 -707 c0 -2 -8 -10 -17 -17 -16 -13 -17 -12 -4 4 13
16 21 21 21 13z"/>
<path d="M4542 7220 c0 -14 2 -19 5 -12 2 6 2 18 0 25 -3 6 -5 1 -5 -13z"/>
<path d="M5272 6715 c0 -16 2 -22 5 -12 2 9 2 23 0 30 -3 6 -5 -1 -5 -18z"/>
<path d="M6629 6673 c-13 -16 -12 -17 4 -4 9 7 17 15 17 17 0 8 -8 3 -21 -13z"/>
<path d="M3562 6620 c0 -14 2 -19 5 -12 2 6 2 18 0 25 -3 6 -5 1 -5 -13z"/>
<path d="M5367 6577 c-32 -28 -57 -57 -57 -64 0 -6 -23 -30 -50 -53 -28 -23
-56 -52 -62 -63 -6 -12 46 35 116 103 69 68 126 126 126 127 0 11 -23 -5 -73
-50z"/>
<path d="M3573 5540 c0 -25 2 -35 4 -22 2 12 2 32 0 45 -2 12 -4 2 -4 -23z"/>
<path d="M6130 5196 c0 -2 8 -10 18 -17 15 -13 16 -12 3 4 -13 16 -21 21 -21
13z"/>
<path d="M6060 5167 c0 -2 15 -16 33 -33 l32 -29 -29 33 c-28 30 -36 37 -36
29z"/>
<path d="M6205 5106 c10 -14 19 -26 22 -26 7 0 -17 39 -28 46 -6 3 -3 -5 6
-20z"/>
<path d="M6275 5030 c10 -11 20 -20 23 -20 3 0 -3 9 -13 20 -10 11 -20 20 -23
20 -3 0 3 -9 13 -20z"/>
<path d="M6180 5036 c0 -2 8 -10 18 -17 15 -13 16 -12 3 4 -13 16 -21 21 -21
13z"/>
<path d="M6756 4355 c15 -22 51 -69 79 -105 28 -36 60 -78 70 -93 10 -15 20
-25 23 -23 5 5 -116 167 -169 226 l-31 35 28 -40z"/>
<path d="M3413 4240 c0 -25 2 -35 4 -22 2 12 2 32 0 45 -2 12 -4 2 -4 -23z"/>
<path d="M7225 3850 c10 -11 20 -20 23 -20 3 0 -3 9 -13 20 -10 11 -20 20 -23
20 -3 0 3 -9 13 -20z"/>
<path d="M7267 3792 c10 -19 24 -39 32 -45 12 -10 12 -9 3 8 -6 11 -21 31 -33
45 l-21 25 19 -33z"/>
<path d="M7395 3593 c15 -24 30 -43 32 -43 7 0 -31 61 -46 73 -8 7 -2 -7 14
-30z"/>
<path d="M7460 3505 c0 -9 120 -175 127 -175 2 0 -17 30 -43 68 -65 91 -84
116 -84 107z"/>
<path d="M7650 3246 c0 -2 8 -10 18 -17 15 -13 16 -12 3 4 -13 16 -21 21 -21
13z"/>
<path d="M3482 3135 c-17 -37 -14 -45 4 -12 9 16 14 31 11 33 -2 2 -9 -7 -15
-21z"/>
<path d="M7866 2951 c48 -63 253 -255 262 -246 3 2 -19 25 -49 51 -30 26 -101
95 -158 153 -92 94 -98 99 -55 42z"/>
<path d="M3406 2925 c-58 -66 -66 -93 -10 -32 32 33 78 97 71 97 -2 0 -29 -29
-61 -65z"/>
<path d="M3339 2903 l-34 -38 38 34 c20 19 37 36 37 38 0 8 -8 0 -41 -34z"/>
<path d="M6070 2859 c0 -5 5 -7 10 -4 6 3 10 8 10 11 0 2 -4 4 -10 4 -5 0 -10
-5 -10 -11z"/>
<path d="M3165 2798 c-89 -45 -90 -46 -83 -53 5 -5 145 69 163 86 14 14 5 11
-80 -33z"/>
<path d="M6020 2809 c-19 -17 -59 -44 -87 -61 -52 -29 -70 -44 -35 -30 65 28
113 57 142 87 42 43 28 45 -20 4z"/>
<path d="M3016 6683 c-6 -14 -5 -15 5 -6 7 7 10 15 7 18 -3 3 -9 -2 -12 -12z"/>
<path d="M7454 4561 c21 -23 26 -26 26 -11 0 5 -10 15 -22 21 -23 12 -23 12
-4 -10z"/>
<path d="M7502 4514 c-7 -8 -8 -14 -3 -14 10 0 25 19 20 25 -2 1 -10 -3 -17
-11z"/>
<path d="M7590 4415 c-10 -12 -10 -19 -2 -27 17 -17 37 5 25 27 -9 15 -11 15
-23 0z"/>
<path d="M7506 4385 c-17 -26 -12 -55 10 -55 8 0 14 -4 14 -10 0 -5 -7 -7 -15
-4 -8 4 -15 2 -15 -4 0 -17 24 -20 36 -4 12 16 12 16 58 -25 14 -12 26 -8 26
10 0 6 -3 8 -6 4 -8 -7 -39 22 -47 46 -4 9 -12 17 -19 17 -9 0 -9 -3 2 -10 8
-5 11 -12 8 -15 -10 -10 -28 4 -28 21 0 8 -5 14 -11 14 -5 0 -7 5 -3 11 4 8 9
7 15 -2 4 -7 11 -10 15 -7 3 4 0 14 -9 22 -13 14 -17 13 -31 -9z m14 -35 c0
-5 -2 -10 -4 -10 -3 0 -8 5 -11 10 -3 6 -1 10 4 10 6 0 11 -4 11 -10z"/>
<path d="M7560 4382 c0 -5 7 -15 15 -22 8 -7 15 -9 15 -6 0 4 -7 14 -15 22 -8
9 -15 11 -15 6z"/>
</g>
</svg>
